 http://imageshack.us/m/27/8048/shelter2b20102bposter.jpg

Country.......: USA
Genre.........: Horror, Thriller
Date release..: 27.03.2010 [World]
Director......: Mans Marlind, Bjorn Stein
Writers.......: Michael Cooney
Duration......: 108 min.
More..........: http://www.imdb.com/title/tt1179069
Trailer.......: http://www.imdb.com/video/imdb/vi3490513945
Trailer.......:

Pilot :
A female forensic psychiatrist discovers that all of one of her patient's multiple personalities are murder victims. She will have to find out what's happening before her time is finished. 

Cats :
Julianne Moore   	 ...  	Cara Harding
Jonathan Rhys Meyers 	... 	David | Adam / Wesley
Jeffrey DeMunn 	... 	Dr. Harding
Frances Conroy 	... 	Mrs. Bernburg
Nathan Corddry 	... 	Stephen Harding
Brooklynn Proulx 	... 	Sammy
Brian Anthony Wilson 	... 	Virgil (as Brian A. Wilson)
Joyce Feurring 	... 	Granny Holler Witch
Steven Rishard 	... 	Detective Danton
Charles Techman 	... 	Monty Hughes
John Peakes 	... 	Dr. Charles Foster
Michael Graves 	... 	Holler Man
Chaz Moneypenny 	... 	Adam Sabre
Charles David Richards 	... 	Holiday Inn Bar Keep (as Charles D. Richards)
Rick Applegate 	... 	Warden Collins 

Data Technical :
!!! SAMPLE !!!
Audio.....: English
Subtitles.: English .srt, Spanish .srt, Swedish .srt, Italian .srt, French .srt, Dutch .srt, Polish .txt
Format                           : AVI
Format/Info                      : Audio Video Interleave
File size                        : 702 MiB
Duration                         : 1h 47mn
Overall bit rate                 : 910 Kbps
Writing application              : VirtualDubMod 1.5.4.1 (build 2178/release)
Writing library                  : VirtualDubMod build 2178/release
Video
ID                               : 0
Format                           : MPEG-4 Visual
Format profile                   : Advanced Simple@L5
Format settings, BVOP            : Yes
Format settings, QPel            : No
Format settings, GMC             : No warppoints
Format settings, Matrix          : Default (H.263)
Muxing mode                      : Packed bitstream
Codec ID                         : DX50
Codec ID/Hint                    : DivX 5
Duration                         : 1h 47mn
Bit rate                         : 788 Kbps
Width                            : 640 pixels
Height                           : 272 pixels
Display aspect ratio             : 2.35:1
Frame rate                       : 25.000 fps
Color space                      : YUV
Chroma subsampling               : 4:2:0
Bit depth                        : 8 bits
Scan type                        : Progressive
Bits/(Pixel*Frame)               : 0.181
Stream size                      : 608 MiB (87%)
Writing library                  : XviD 1.2.1 (UTC 2008-12-04)
Audio
ID                               : 1
Format                           : MPEG Audio
Format version                   : Version 1
Format profile                   : Layer 3
Mode                             : Joint stereo
Mode extension                   : MS Stereo
Codec ID                         : 55
Codec ID/Hint                    : MP3
Duration                         : 1h 47mn
Bit rate mode                    : Constant
Bit rate                         : 112 Kbps
Channel(s)                       : 2 channels
Sampling rate                    : 44.1 KHz
Stream size                      : 86.4 MiB (12%)
Alignment                        : Split accross interleaves
Interleave, duration             : 40 ms (1.00 video frame)
Interleave, preload duration     : 500 ms

Screen : 
http://img814.imageshack.us/img814/3302/shelter2010s1.jpg 
http://imageshack.us/m/805/6888/shelter2010s2.jpg 
http://imageshack.us/m/849/4634/shelter2010s3.jpg 
http://imageshack.us/m/706/1696/shelter2010s4.jpg 
http://imageshack.us/m/42/4517/shelter2010s5.jpg